<svg width="16" height="16" viewBox="0 0 16 16" fill="none" xmlns="http://www.w3.org/2000/svg">
<path d="M12.6667 14L8 10.6667L3.33333 14V3.33333C3.33333 2.97971 3.47381 2.64057 3.72386 2.39052C3.97391 2.14048 4.31305 2 4.66667 2H11.3333C11.687 2 12.0261 2.14048 12.2761 2.39052C12.5262 2.64057 12.6667 2.97971 12.6667 3.33333V14Z" stroke="white" stroke-width="2" stroke-linecap="round" stroke-linejoin="round"/>
<path d="M7.59091 8.88182L7.65909 7.00681L6.07386 8.0125L5.66477 7.29659L7.33523 6.42727L5.66477 5.55795L6.07386 4.84204L7.65909 5.84772L7.59091 3.97272H8.40909L8.34091 5.84772L9.92614 4.84204L10.3352 5.55795L8.66477 6.42727L10.3352 7.29659L9.92614 8.0125L8.34091 7.00681L8.40909 8.88182H7.59091Z" fill="white"/>
</svg>
